<?xml version="1.0" encoding="utf-8"?>
<!-- Generator: Adobe Illustrator 22.0.0, SVG Export Plug-In . SVG Version: 6.00 Build 0)  -->
<svg version="1.1" id="Capa_1" xmlns="http://www.w3.org/2000/svg" xmlns:xlink="http://www.w3.org/1999/xlink" x="0px" y="0px"
	 viewBox="0 0 966 966" style="enable-background:new 0 0 966 966;" xml:space="preserve">
<style type="text/css">
	.st0{fill:#F7931E;}
	.st1{fill:#78432D;}
	.st2{fill:#FFA991;}
	.st3{fill:#FFC5B0;}
	.st4{fill:#96230E;}
	.st5{fill:#F8BCA0;}
	.st6{fill:none;}
	.st7{opacity:3.000000e-02;}
	.st8{fill:#000100;}
	.st9{fill:#211F20;}
</style>
<title>icon</title>
<circle class="st0" cx="483" cy="483" r="483"/>
<path id="cabello" class="st1" d="M356.5,765.5c81.3-6.7,162.7-13.3,244-20c35.4-4.9,64.7-11,86-16c62.5-14.8,79.1-25.8,85-30
	c26.2-18.6,40.5-42.8,48-59c-3.8,17.7-11.3,34.4-22,49c17.3-12.1,31.4-28.2,41-47c20.2-39.5,13.6-77.2,11-89
	c12.2,10.2,17,26.9,12,42c12-11.9,16.8-23.5,19-31c9.6-33.2-7.6-72.8-43-101c10.9,1.8,21.2,6.3,30,13c28.8,22.6,26.3,61.8,26,66
	c4.2-12.6,5.5-25.9,4-39c-5.6-44.7-46.4-73-61-84c-76.3-57.5-54-107.2-148-213c-53.8-60.6-119.1-134.1-215-140
	c-67.4-4.1-121.8,26.6-150,46c-12.7-1.2-31.5-1.2-51,7c-35.5,14.9-55.4,49.3-87,133c-37.8,100.2-24.3,90.8-46,137
	c-40.6,86.6-87.6,119.2-76,171c4.3,19.2,15,33.3,23,42c-1.9,9.9-8.6,49.9,16,85c7.3,10.3,16.4,19.1,27,26c-23.5-26-32.5-62-24-96
	c0.4,16.1,3.8,32.1,10,47c5.3,12.3,12.3,23.8,21,34c13.9,16.3,31.4,29.3,51,38c-11.3-10.1-20.5-22.3-27-36c22.5,25,45.4,38.2,60,45
	c30,14,57.1,16.6,83,19C321.1,766.2,338.8,766.6,356.5,765.5z"/>
<g>
	<path class="st2" d="M636.5,825.5c-34-34.6-47.5-85.2-36.3-133.8c-18.2,22.8-41.4,43.4-70.7,57.8c-11.7,5.7-23.9,10.3-36.5,13.5
		c-50.1-10.2-96.6-33.1-135.2-66.3c4,26.3,5,74.6-29.3,116.8c-43.5,53.6-108.2,53.2-116,53c42.4,24.3,140.9,73.2,275,72
		c93-1,184.3-25.8,265-72C744,867.3,682.4,872.1,636.5,825.5z"/>
	<path class="st3" d="M529.5,749.5c29.3-14.3,52.4-34.9,70.7-57.8c44.9-56.3,60.1-126.3,64.3-150.2c2.3-13,29.8-178.2-53-239
		c-28.4-20.9-42.8-9.6-101-45c-37.3-22.7-58.2-43.6-88-40c-19.5,2.3-34.2,14.1-43.5,23.5c-13.9-1.9-45.8-4-73.5,15.5
		c-37.7,26.5-41.5,74.4-43,94c-2.6,32.7,6.6,42.2,10,81c2.3,25.7,1.8,61.8-10.5,106.5c6,25.9,24.9,92.2,85.5,149.5
		c3.4,3.2,6.8,6.2,10.3,9.2c38.6,33.2,85.2,56,135.2,66.3C505.6,759.8,517.8,755.2,529.5,749.5z"/>
</g>
<g id="nariz">
	<polygon class="st4" points="445.5,574.5 466.5,577.5 483.5,575.5 504.5,567.5 496.5,528.5 447.5,535.5 	"/>
	<path class="st5" d="M445.5,574.5c0.7-1.1,2.3-6,7-7c5.8-1.3,13,7,16.7,10c4.2,1.8,9,1.3,12.6-1.5c2.3-7.9,8.6-12.9,14.7-12.5
		c3.1,0.3,5.9,1.8,8,4c4.4-4.4,9.6-11.2,9-19c-0.7-9.5-9.6-13.3-16-24c-4-6.6-7.8-17.2-6-34c-16.7,0.7-33.3,1.3-50,2
		c5.5,20.3,2.7,33.6-1,42s-9.3,14.5-8,23C433.8,565.5,440.4,571.1,445.5,574.5z"/>
</g>
<g>
	<path class="st6" d="M472.5-1.5v233.8c11.3,7.1,23.6,15.8,38.5,24.9c58.2,35.4,72.6,24.1,101,45c82.8,60.8,55.3,226,53,239
		c-4.3,24-19.4,94-64.3,150.2C589.5,740,603,790.6,637,825.2c45.9,46.6,107.5,41.8,116,41c-80.7,46.2-172,71-265,72
		c-5.2,0-10.4,0-15.5-0.1v27.4h493v-967H472.5z"/>
	<path class="st7" d="M488,938.2c93-1,184.3-25.8,265-72c-8.5,0.8-70.1,5.6-116-41c-34-34.6-47.5-85.2-36.3-133.8
		c44.9-56.3,60.1-126.3,64.3-150.2c2.3-13,29.8-178.2-53-239c-28.4-20.9-42.8-9.6-101-45c-14.9-9.1-27.2-17.9-38.5-24.9v705.8
		C477.6,938.2,482.8,938.2,488,938.2z"/>
</g>
<g id="cejas">
	<path class="st8" d="M495.5,373.3c5.3,3.7,11.5,6,18,6.5c11.8,0.8,18-4.9,33-9.3c2.9-0.9,21.3-6.2,40-4.3c16,1.8,31.1,8.5,43,19.4
		c-4-6.2-17.3-24.7-43-29.4c-16.4-3-31.7,0.6-56,6.5C518.6,365.5,506.9,369,495.5,373.3z"/>
	<path class="st8" d="M403.6,382.1c-4.1,5.1-9.6,9-15.9,11.1c-11.3,3.6-18.7-1.2-34.5-2.6c-3-0.3-22.3-1.8-40,4.5
		c-20.3,7.2-31.8,22.5-37,30.8c2.3-7.6,10.6-30.6,34.4-41.6c15.2-7,31-6.5,56.2-5.8C379.1,378.8,391.4,380,403.6,382.1z"/>
	<path class="st9" d="M410.5,482.5c-12-16-29.4-37.1-53-38s-44.9,13.5-55,35c5.1-24.4,29-47,45-47
		C376.6,432.5,390.5,450.5,410.5,482.5z"/>
	<polygon class="st9" points="351.5,435.5 337.5,423.5 347.5,437.5 330.5,425.5 339.5,438.5 322.5,429.5 334.5,442.5 315.5,434.5 
		329.5,445.5 308.5,439.5 322.5,448.5 299.5,445.5 318.5,453.5 288.5,454.5 314.5,457.5 	"/>
	<path class="st9" d="M516.5,470.5c17-42,29.9-46.3,46-52c17-6,43.8,4.6,58,22c-10-21-34-38-60-35
		C545.5,407.3,523.5,433.5,516.5,470.5z"/>
	<polygon class="st9" points="563.5,408.5 570.5,395.5 566.5,409.5 570.5,408.5 578.5,395.5 573.5,409.5 578.5,408.5 587.5,396.5 
		581.5,409.5 584.5,409.5 596.5,399.5 587.5,410.5 590.5,411.5 604.5,402.5 594.5,412.8 594.5,414.5 615.5,406.5 601.1,417.1 
		626.5,412.5 603.5,421.5 	"/>
</g>
</svg>
